<mxfile host="app.diagrams.net" agent="Mozilla/5.0 (Macintosh; Intel Mac OS X 10_15_7) AppleWebKit/605.1.15 (KHTML, like Gecko) Version/18.3 Safari/605.1.15" version="26.2.8" pages="3">
  <diagram name="Architecture" id="SdlY6U1H4udfot6sdlyQ">
    <mxGraphModel dx="2100" dy="1007" grid="0" gridSize="10" guides="1" tooltips="1" connect="1" arrows="1" fold="1" page="0" pageScale="1" pageWidth="850" pageHeight="1100" math="0" shadow="0">
      <root>
        <mxCell id="0" />
        <mxCell id="1" parent="0" />
        <mxCell id="Ugt37-HIwqrgVjgy8sR8-19" value="" style="rounded=1;whiteSpace=wrap;html=1;" parent="1" vertex="1">
          <mxGeometry x="770" y="100" width="430" height="500" as="geometry" />
        </mxCell>
        <mxCell id="Ugt37-HIwqrgVjgy8sR8-18" value="" style="rounded=1;whiteSpace=wrap;html=1;" parent="1" vertex="1">
          <mxGeometry x="180" y="90" width="430" height="500" as="geometry" />
        </mxCell>
        <mxCell id="Ugt37-HIwqrgVjgy8sR8-10" style="edgeStyle=orthogonalEdgeStyle;rounded=0;orthogonalLoop=1;jettySize=auto;html=1;exitX=1;exitY=0.5;exitDx=0;exitDy=0;entryX=0;entryY=0.5;entryDx=0;entryDy=0;" parent="1" source="Ugt37-HIwqrgVjgy8sR8-1" target="Ugt37-HIwqrgVjgy8sR8-2" edge="1">
          <mxGeometry relative="1" as="geometry" />
        </mxCell>
        <mxCell id="Ugt37-HIwqrgVjgy8sR8-25" value="Data Authentication&amp;nbsp;&lt;div&gt;&amp;nbsp;Pipeline&lt;/div&gt;" style="edgeLabel;html=1;align=center;verticalAlign=middle;resizable=0;points=[];" parent="Ugt37-HIwqrgVjgy8sR8-10" vertex="1" connectable="0">
          <mxGeometry x="-0.2349" y="2" relative="1" as="geometry">
            <mxPoint x="11" as="offset" />
          </mxGeometry>
        </mxCell>
        <mxCell id="Ugt37-HIwqrgVjgy8sR8-1" value="Upload Image" style="rounded=1;whiteSpace=wrap;html=1;" parent="1" vertex="1">
          <mxGeometry x="210" y="210" width="120" height="60" as="geometry" />
        </mxCell>
        <mxCell id="Ugt37-HIwqrgVjgy8sR8-11" style="edgeStyle=orthogonalEdgeStyle;rounded=0;orthogonalLoop=1;jettySize=auto;html=1;exitX=0.5;exitY=1;exitDx=0;exitDy=0;entryX=0.5;entryY=0;entryDx=0;entryDy=0;" parent="1" source="Ugt37-HIwqrgVjgy8sR8-2" target="Ugt37-HIwqrgVjgy8sR8-3" edge="1">
          <mxGeometry relative="1" as="geometry" />
        </mxCell>
        <mxCell id="BpX1r6ZqAH9jT2j5T_lQ-10" value="Mint" style="edgeLabel;html=1;align=center;verticalAlign=middle;resizable=0;points=[];" vertex="1" connectable="0" parent="Ugt37-HIwqrgVjgy8sR8-11">
          <mxGeometry x="0.1667" relative="1" as="geometry">
            <mxPoint as="offset" />
          </mxGeometry>
        </mxCell>
        <mxCell id="Ugt37-HIwqrgVjgy8sR8-14" style="edgeStyle=orthogonalEdgeStyle;rounded=0;orthogonalLoop=1;jettySize=auto;html=1;exitX=1;exitY=0.5;exitDx=0;exitDy=0;" parent="1" source="Ugt37-HIwqrgVjgy8sR8-2" target="Ugt37-HIwqrgVjgy8sR8-5" edge="1">
          <mxGeometry relative="1" as="geometry" />
        </mxCell>
        <mxCell id="Ugt37-HIwqrgVjgy8sR8-2" value="Watermarked Image" style="rounded=1;whiteSpace=wrap;html=1;" parent="1" vertex="1">
          <mxGeometry x="450" y="210" width="120" height="60" as="geometry" />
        </mxCell>
        <mxCell id="Ugt37-HIwqrgVjgy8sR8-12" style="edgeStyle=orthogonalEdgeStyle;rounded=0;orthogonalLoop=1;jettySize=auto;html=1;exitX=0.5;exitY=1;exitDx=0;exitDy=0;entryX=0.5;entryY=0;entryDx=0;entryDy=0;" parent="1" source="Ugt37-HIwqrgVjgy8sR8-3" target="Ugt37-HIwqrgVjgy8sR8-4" edge="1">
          <mxGeometry relative="1" as="geometry" />
        </mxCell>
        <mxCell id="Ugt37-HIwqrgVjgy8sR8-3" value="NFT" style="rounded=1;whiteSpace=wrap;html=1;" parent="1" vertex="1">
          <mxGeometry x="430" y="330" width="120" height="60" as="geometry" />
        </mxCell>
        <mxCell id="Ugt37-HIwqrgVjgy8sR8-4" value="NFT Marketplace" style="rounded=1;whiteSpace=wrap;html=1;" parent="1" vertex="1">
          <mxGeometry x="430" y="450" width="120" height="60" as="geometry" />
        </mxCell>
        <mxCell id="Ugt37-HIwqrgVjgy8sR8-15" style="edgeStyle=orthogonalEdgeStyle;rounded=0;orthogonalLoop=1;jettySize=auto;html=1;entryX=0;entryY=0.5;entryDx=0;entryDy=0;" parent="1" target="Ugt37-HIwqrgVjgy8sR8-6" edge="1">
          <mxGeometry relative="1" as="geometry">
            <mxPoint x="720" y="240" as="sourcePoint" />
          </mxGeometry>
        </mxCell>
        <mxCell id="Ugt37-HIwqrgVjgy8sR8-5" value="User" style="shape=umlActor;verticalLabelPosition=bottom;verticalAlign=top;html=1;outlineConnect=0;" parent="1" vertex="1">
          <mxGeometry x="680" y="210" width="30" height="60" as="geometry" />
        </mxCell>
        <mxCell id="Ugt37-HIwqrgVjgy8sR8-6" value="Social Media" style="rounded=1;whiteSpace=wrap;html=1;" parent="1" vertex="1">
          <mxGeometry x="870" y="210" width="120" height="60" as="geometry" />
        </mxCell>
        <mxCell id="Ugt37-HIwqrgVjgy8sR8-20" style="edgeStyle=orthogonalEdgeStyle;rounded=0;orthogonalLoop=1;jettySize=auto;html=1;exitX=0.5;exitY=0;exitDx=0;exitDy=0;exitPerimeter=0;entryX=0.5;entryY=1;entryDx=0;entryDy=0;" parent="1" source="Ugt37-HIwqrgVjgy8sR8-8" target="Ugt37-HIwqrgVjgy8sR8-6" edge="1">
          <mxGeometry relative="1" as="geometry" />
        </mxCell>
        <mxCell id="Ugt37-HIwqrgVjgy8sR8-26" value="Verify" style="edgeLabel;html=1;align=center;verticalAlign=middle;resizable=0;points=[];" parent="Ugt37-HIwqrgVjgy8sR8-20" vertex="1" connectable="0">
          <mxGeometry x="0.1457" y="-2" relative="1" as="geometry">
            <mxPoint as="offset" />
          </mxGeometry>
        </mxCell>
        <mxCell id="Ugt37-HIwqrgVjgy8sR8-8" value="Verify" style="shape=umlActor;verticalLabelPosition=bottom;verticalAlign=top;html=1;outlineConnect=0;" parent="1" vertex="1">
          <mxGeometry x="915" y="370" width="30" height="60" as="geometry" />
        </mxCell>
        <mxCell id="Ugt37-HIwqrgVjgy8sR8-9" value="" style="endArrow=classic;html=1;rounded=0;" parent="1" target="Ugt37-HIwqrgVjgy8sR8-1" edge="1">
          <mxGeometry width="50" height="50" relative="1" as="geometry">
            <mxPoint x="110" y="240" as="sourcePoint" />
            <mxPoint x="530" y="290" as="targetPoint" />
          </mxGeometry>
        </mxCell>
        <mxCell id="Ugt37-HIwqrgVjgy8sR8-13" value="User" style="shape=umlActor;verticalLabelPosition=bottom;verticalAlign=top;html=1;outlineConnect=0;" parent="1" vertex="1">
          <mxGeometry x="60" y="210" width="30" height="60" as="geometry" />
        </mxCell>
        <mxCell id="Ugt37-HIwqrgVjgy8sR8-21" value="Web3 Native" style="text;html=1;align=center;verticalAlign=middle;whiteSpace=wrap;rounded=0;fontStyle=1;fontSize=20;" parent="1" vertex="1">
          <mxGeometry x="240" y="530" width="150" height="35" as="geometry" />
        </mxCell>
        <mxCell id="Ugt37-HIwqrgVjgy8sR8-22" value="Web2 Native" style="text;html=1;align=center;verticalAlign=middle;whiteSpace=wrap;rounded=0;fontStyle=1;fontSize=20;" parent="1" vertex="1">
          <mxGeometry x="810" y="530" width="150" height="35" as="geometry" />
        </mxCell>
        <mxCell id="Ugt37-HIwqrgVjgy8sR8-23" value="&lt;b&gt;Virality&amp;nbsp;&lt;/b&gt;↑&amp;nbsp;" style="text;html=1;align=center;verticalAlign=middle;whiteSpace=wrap;rounded=0;fontSize=21;" parent="1" vertex="1">
          <mxGeometry x="1010" y="220" width="180" height="35" as="geometry" />
        </mxCell>
        <mxCell id="Ugt37-HIwqrgVjgy8sR8-24" value="&lt;b&gt;Value&amp;nbsp;&lt;/b&gt;↑&amp;nbsp;" style="text;html=1;align=center;verticalAlign=middle;whiteSpace=wrap;rounded=0;fontSize=21;" parent="1" vertex="1">
          <mxGeometry x="330" y="400" width="110" height="35" as="geometry" />
        </mxCell>
        <mxCell id="BpX1r6ZqAH9jT2j5T_lQ-4" value="Data Pipeline" style="text;html=1;align=center;verticalAlign=middle;whiteSpace=wrap;rounded=0;fontStyle=1;fontSize=25;" vertex="1" parent="1">
          <mxGeometry x="3" y="757" width="250" height="30" as="geometry" />
        </mxCell>
        <mxCell id="BpX1r6ZqAH9jT2j5T_lQ-8" style="edgeStyle=orthogonalEdgeStyle;rounded=0;orthogonalLoop=1;jettySize=auto;html=1;exitX=1;exitY=0.5;exitDx=0;exitDy=0;entryX=0;entryY=0.5;entryDx=0;entryDy=0;" edge="1" parent="1" source="BpX1r6ZqAH9jT2j5T_lQ-5" target="BpX1r6ZqAH9jT2j5T_lQ-6">
          <mxGeometry relative="1" as="geometry" />
        </mxCell>
        <mxCell id="BpX1r6ZqAH9jT2j5T_lQ-5" value="&lt;font style=&quot;font-size: 20px;&quot;&gt;Image&amp;nbsp;&lt;/font&gt;" style="text;html=1;align=center;verticalAlign=middle;whiteSpace=wrap;rounded=0;" vertex="1" parent="1">
          <mxGeometry x="-47" y="828" width="60" height="30" as="geometry" />
        </mxCell>
        <mxCell id="BpX1r6ZqAH9jT2j5T_lQ-9" style="edgeStyle=orthogonalEdgeStyle;rounded=0;orthogonalLoop=1;jettySize=auto;html=1;exitX=1;exitY=0.5;exitDx=0;exitDy=0;entryX=0;entryY=0.5;entryDx=0;entryDy=0;" edge="1" parent="1" source="BpX1r6ZqAH9jT2j5T_lQ-6" target="BpX1r6ZqAH9jT2j5T_lQ-7">
          <mxGeometry relative="1" as="geometry" />
        </mxCell>
        <mxCell id="BpX1r6ZqAH9jT2j5T_lQ-6" value="&lt;font style=&quot;font-size: 20px;&quot;&gt;PHash&lt;/font&gt;" style="text;html=1;align=center;verticalAlign=middle;whiteSpace=wrap;rounded=0;" vertex="1" parent="1">
          <mxGeometry x="80" y="828" width="60" height="30" as="geometry" />
        </mxCell>
        <mxCell id="BpX1r6ZqAH9jT2j5T_lQ-7" value="&lt;font style=&quot;font-size: 20px;&quot;&gt;mint&lt;/font&gt;" style="text;html=1;align=center;verticalAlign=middle;whiteSpace=wrap;rounded=0;" vertex="1" parent="1">
          <mxGeometry x="217" y="828" width="60" height="30" as="geometry" />
        </mxCell>
      </root>
    </mxGraphModel>
  </diagram>
  <diagram id="y2AX_-SC_xydC1BlpLDu" name="Frontend">
    <mxGraphModel dx="1457" dy="863" grid="0" gridSize="10" guides="1" tooltips="1" connect="1" arrows="1" fold="1" page="0" pageScale="1" pageWidth="850" pageHeight="1100" math="0" shadow="0">
      <root>
        <mxCell id="0" />
        <mxCell id="1" parent="0" />
        <mxCell id="cwnbkCxePR4Ohjtt_Xep-1" value="" style="rounded=1;whiteSpace=wrap;html=1;" parent="1" vertex="1">
          <mxGeometry x="250" y="130" width="470" height="380" as="geometry" />
        </mxCell>
        <mxCell id="cwnbkCxePR4Ohjtt_Xep-2" value="NFT Marketplace" style="rounded=0;whiteSpace=wrap;html=1;" parent="1" vertex="1">
          <mxGeometry x="330" y="250" width="120" height="140" as="geometry" />
        </mxCell>
        <mxCell id="cwnbkCxePR4Ohjtt_Xep-3" value="Verifier App" style="rounded=0;whiteSpace=wrap;html=1;" parent="1" vertex="1">
          <mxGeometry x="540" y="250" width="120" height="140" as="geometry" />
        </mxCell>
        <mxCell id="cwnbkCxePR4Ohjtt_Xep-4" value="Frontend Requirements" style="text;html=1;align=center;verticalAlign=middle;whiteSpace=wrap;rounded=0;fontStyle=1;fontSize=16;" parent="1" vertex="1">
          <mxGeometry x="300" y="180" width="210" height="30" as="geometry" />
        </mxCell>
        <mxCell id="UONl_0vnLgeqRxhJSI32-1" value="" style="rounded=0;whiteSpace=wrap;html=1;" vertex="1" parent="1">
          <mxGeometry x="152.5" y="727" width="505" height="408" as="geometry" />
        </mxCell>
        <mxCell id="UONl_0vnLgeqRxhJSI32-7" value="" style="rounded=1;whiteSpace=wrap;html=1;" vertex="1" parent="1">
          <mxGeometry x="189" y="805" width="169" height="190" as="geometry" />
        </mxCell>
        <mxCell id="UONl_0vnLgeqRxhJSI32-2" value="Pic" style="rounded=1;whiteSpace=wrap;html=1;" vertex="1" parent="1">
          <mxGeometry x="206" y="846" width="120" height="60" as="geometry" />
        </mxCell>
        <mxCell id="UONl_0vnLgeqRxhJSI32-3" value="Connect Wallet" style="rounded=1;whiteSpace=wrap;html=1;" vertex="1" parent="1">
          <mxGeometry x="485" y="750" width="120" height="35" as="geometry" />
        </mxCell>
        <mxCell id="UONl_0vnLgeqRxhJSI32-4" value="Bid&amp;nbsp;" style="rounded=1;whiteSpace=wrap;html=1;" vertex="1" parent="1">
          <mxGeometry x="208" y="918.5" width="34" height="35" as="geometry" />
        </mxCell>
        <mxCell id="UONl_0vnLgeqRxhJSI32-5" value="+" style="rounded=1;whiteSpace=wrap;html=1;" vertex="1" parent="1">
          <mxGeometry x="254" y="918.5" width="34" height="35" as="geometry" />
        </mxCell>
        <mxCell id="UONl_0vnLgeqRxhJSI32-6" value="-" style="rounded=1;whiteSpace=wrap;html=1;" vertex="1" parent="1">
          <mxGeometry x="300" y="918.5" width="34" height="35" as="geometry" />
        </mxCell>
        <mxCell id="UONl_0vnLgeqRxhJSI32-8" value="" style="rounded=1;whiteSpace=wrap;html=1;" vertex="1" parent="1">
          <mxGeometry x="418" y="807" width="169" height="190" as="geometry" />
        </mxCell>
        <mxCell id="UONl_0vnLgeqRxhJSI32-9" value="Pic" style="rounded=1;whiteSpace=wrap;html=1;" vertex="1" parent="1">
          <mxGeometry x="435" y="848" width="120" height="60" as="geometry" />
        </mxCell>
        <mxCell id="UONl_0vnLgeqRxhJSI32-10" value="Bid&amp;nbsp;" style="rounded=1;whiteSpace=wrap;html=1;" vertex="1" parent="1">
          <mxGeometry x="437" y="920.5" width="34" height="35" as="geometry" />
        </mxCell>
        <mxCell id="UONl_0vnLgeqRxhJSI32-11" value="+" style="rounded=1;whiteSpace=wrap;html=1;" vertex="1" parent="1">
          <mxGeometry x="483" y="920.5" width="34" height="35" as="geometry" />
        </mxCell>
        <mxCell id="UONl_0vnLgeqRxhJSI32-12" value="-" style="rounded=1;whiteSpace=wrap;html=1;" vertex="1" parent="1">
          <mxGeometry x="529" y="920.5" width="34" height="35" as="geometry" />
        </mxCell>
        <mxCell id="UONl_0vnLgeqRxhJSI32-13" value="NFT Marketplace" style="text;html=1;align=center;verticalAlign=middle;whiteSpace=wrap;rounded=0;fontStyle=1;fontSize=36;" vertex="1" parent="1">
          <mxGeometry x="75" y="674" width="297" height="30" as="geometry" />
        </mxCell>
      </root>
    </mxGraphModel>
  </diagram>
  <diagram id="uJhZd8uZVskjZq-rBaY8" name="Contracts">
    <mxGraphModel dx="1020" dy="1704" grid="1" gridSize="10" guides="1" tooltips="1" connect="1" arrows="1" fold="1" page="1" pageScale="1" pageWidth="850" pageHeight="1100" math="0" shadow="0">
      <root>
        <mxCell id="0" />
        <mxCell id="1" parent="0" />
        <mxCell id="k0MfFibqVgcLgkjUEGqe-1" value="MarketPlace Contracts" style="rounded=1;whiteSpace=wrap;html=1;" vertex="1" parent="1">
          <mxGeometry x="250" y="190" width="160" height="280" as="geometry" />
        </mxCell>
        <mxCell id="k0MfFibqVgcLgkjUEGqe-3" style="edgeStyle=orthogonalEdgeStyle;rounded=0;orthogonalLoop=1;jettySize=auto;html=1;exitX=0.5;exitY=1;exitDx=0;exitDy=0;" edge="1" parent="1" source="k0MfFibqVgcLgkjUEGqe-2" target="k0MfFibqVgcLgkjUEGqe-1">
          <mxGeometry relative="1" as="geometry" />
        </mxCell>
        <mxCell id="k0MfFibqVgcLgkjUEGqe-2" value="NFT contract" style="rounded=1;whiteSpace=wrap;html=1;" vertex="1" parent="1">
          <mxGeometry x="30" y="-40" width="160" height="280" as="geometry" />
        </mxCell>
      </root>
    </mxGraphModel>
  </diagram>
</mxfile>
